HIERARCHY
ROOT root
{
	OFFSET	0	13.1	24.9
	CHANNELS 6  Xposition Yposition Zposition Xrotation Yrotation Zrotation
	JOINT spine_1
	{
		OFFSET	0	9.99999	0
		CHANNELS 3  Xrotation Yrotation Zrotation
		JOINT spine_2
		{
			OFFSET	0	112	-10
			CHANNELS 3  Xrotation Yrotation Zrotation
			JOINT spine_3
			{
				OFFSET	0	206.5	19.3
				CHANNELS 3  Xrotation Yrotation Zrotation
				JOINT spine_4
				{
					OFFSET	0	110.4	14.6
					CHANNELS 3  Xrotation Yrotation Zrotation
					JOINT neck_1
					{
						OFFSET	0	71.8	-50.3
						CHANNELS 3  Xrotation Yrotation Zrotation
						JOINT neck_2
						{
							OFFSET	0	86.2	-25.8
							CHANNELS 3  Xrotation Yrotation Zrotation
							JOINT head_ee
							{
								OFFSET	0	179.8	-8.7
								CHANNELS 3  Xrotation Yrotation Zrotation
								End Site
								{
									OFFSET	1	0	0
								}
							}
						}
					}
					JOINT left_clavicle
					{
						OFFSET	-43.2	22.4	-70.8
						CHANNELS 3  Xrotation Yrotation Zrotation
						JOINT left_shoulder
						{
							OFFSET	-93.9	-5.79999	48.7
							CHANNELS 3  Xrotation Yrotation Zrotation
							JOINT left_elbow
							{
								OFFSET	-291.4	-30.8	15.2
								CHANNELS 3  Xrotation Yrotation Zrotation
								JOINT left_lowarm_twist
								{
									OFFSET	-110.7	-3.89999	13.6
									CHANNELS 3  Xrotation Yrotation Zrotation
									JOINT left_hand
									{
										OFFSET	-110.7	-3.89999	13.6
										CHANNELS 3  Xrotation Yrotation Zrotation
										JOINT left_ee
										{
											OFFSET	-80.8	-5.10001	12.1
											CHANNELS 3  Xrotation Yrotation Zrotation
											End Site
											{
												OFFSET	1	0	0
											}
										}
									}
								}
							}
						}
					}
					JOINT right_clavicle
					{
						OFFSET	43.2	22.4	-70.8
						CHANNELS 3  Xrotation Yrotation Zrotation
						JOINT right_shoulder
						{
							OFFSET	93.9	-5.79999	48.7
							CHANNELS 3  Xrotation Yrotation Zrotation
							JOINT right_elbow
							{
								OFFSET	291.4	-30.8	15.2
								CHANNELS 3  Xrotation Yrotation Zrotation
								JOINT right_lowarm_twist
								{
									OFFSET	110.7	-3.89999	13.6
									CHANNELS 3  Xrotation Yrotation Zrotation
									JOINT right_hand
									{
										OFFSET	110.7	-3.89999	13.6
										CHANNELS 3  Xrotation Yrotation Zrotation
										JOINT right_ee
										{
											OFFSET	80.8	-5.10001	12.1
											CHANNELS 3  Xrotation Yrotation Zrotation
											End Site
											{
												OFFSET	1	0	0
											}
										}
									}
								}
							}
						}
					}
				}
			}
		}
	}
	JOINT left_hip
	{
		OFFSET	-82.8	-127.5	0.300001
		CHANNELS 3  Xrotation Yrotation Zrotation
		JOINT left_knee
		{
			OFFSET	-28.2	-396.7	2.2
			CHANNELS 3  Xrotation Yrotation Zrotation
			JOINT left_ankle
			{
				OFFSET	-11.7	-411.3	35.4
				CHANNELS 3  Xrotation Yrotation Zrotation
				JOINT left_toes
				{
					OFFSET	0	-60	-88.6
					CHANNELS 3  Xrotation Yrotation Zrotation
					JOINT left_foot_ee
					{
						OFFSET	-22.5	-16.5	-42.2
						CHANNELS 3  Xrotation Yrotation Zrotation
						End Site
						{
							OFFSET	1	0	0
						}
					}
				}
			}
		}
	}
	JOINT right_hip
	{
		OFFSET	82.8	-127.5	0.300001
		CHANNELS 3  Xrotation Yrotation Zrotation
		JOINT right_knee
		{
			OFFSET	28.2	-396.7	2.2
			CHANNELS 3  Xrotation Yrotation Zrotation
			JOINT right_ankle
			{
				OFFSET	11.7	-411.3	35.4
				CHANNELS 3  Xrotation Yrotation Zrotation
				JOINT right_toes
				{
					OFFSET	0	-60	-88.6
					CHANNELS 3  Xrotation Yrotation Zrotation
					JOINT right_foot_ee
					{
						OFFSET	22.5	-16.5	-42.2
						CHANNELS 3  Xrotation Yrotation Zrotation
						End Site
						{
							OFFSET	1	0	0
						}
					}
				}
			}
		}
	}
}
MOTION
Frames: 14
Frame Time: 0.02
1372.05 701.618 -1475.22 -16.0588208588 37.3297706333 9.28766005711 4.5167 0.188178 0.042681 4.51668 0.185081 0.0545689 4.51687 0.176217 0.078616 4.51691 0.186421 0.0497991 -9.11429 -1.23997 -4.92531 -9.04541 1.07634 -5.1274 -0.0 0.0 -0.0 5.76842 -16.5042 10.378 4.26898 -22.6142 67.8932 1.48577 -36.351 0.487816 -47.8612 -3.82327 4.56639 -2.55138 -16.4391 -24.7628 -0.0 0.0 -0.0 4.62032 6.62013 -8.60195 -26.1819 28.4971 -80.4161 0.246545 6.96328 -0.0150001 -33.6696 2.30445 -3.56994 -6.12016 0.665213 46.1816 0.0 0.0 0.0 7.50169 24.6189 1.44309 -22.933 0.249287 3.48698 39.2646 -13.461 -5.05302 -15.5638 0.0 0.0 -0.0 0.0 -0.0 45.6001 10.8387 -3.41172 -2.51506 -0.0953533 -0.37417 -0.145814 9.55098 -0.022441 -7.72548 0.0 0.0 0.0 0.0 0.0 
1341.79683808 692.775 -1543.89086365 -16.1340530453 42.7510396858 10.4302369086 4.4231 0.0201783 0.176223 4.42312 0.00892386 0.17715 4.42313 -0.0149218 0.176746 4.42309 0.0131792 0.176884 -7.11666 -1.99939 -2.19904 -7.1042 -2.13072 -2.60358 -0.0 0.0 -0.0 4.99004 -15.6757 8.77197 -1.97655 -24.6869 68.07 1.53249 -37.2014 0.515787 -48.1542 -3.85706 4.5829 -2.95632 -16.4934 -27.7829 -0.0 0.0 -0.0 4.55852 1.79128 -8.7242 -26.2317 30.6569 -80.5122 0.23967 6.77095 -0.0141781 -36.809 2.61837 -3.82219 -5.8673 1.1037 44.0679 0.0 0.0 0.0 5.64959 20.2895 -2.68422 -26.8221 0.152611 4.07586 37.4247 -11.1467 -4.82319 -13.1076 0.0 0.0 -0.0 0.0 -0.0 49.1126 10.1932 -4.33271 -23.6192 -0.235139 -3.59133 6.32526 5.85717 0.937594 -4.49601 0.0 0.0 0.0 0.0 0.0 
1342.78680773 692.775 -1544.31853037 -15.9267462683 41.9596487716 10.1225430318 4.4231 0.0201783 0.176223 4.42312 0.00892386 0.17715 4.42313 -0.0149218 0.176746 4.42309 0.0131792 0.176884 -7.11666 -1.99939 -2.19904 -7.1042 -2.13072 -2.60358 -0.0 0.0 -0.0 4.99004 -15.6757 8.77197 -1.97655 -24.6869 68.07 1.53249 -37.2014 0.515787 -48.1542 -3.85706 4.5829 -2.95632 -16.4934 -27.7829 -0.0 0.0 -0.0 4.55852 1.79128 -8.7242 -26.2317 30.6569 -80.5122 0.23967 6.77095 -0.0141781 -36.809 2.61837 -3.82219 -5.8673 1.1037 44.0679 0.0 0.0 0.0 5.64959 20.2895 -2.68422 -26.8221 0.152611 4.07586 37.4247 -11.1467 -4.82319 -13.1076 0.0 0.0 -0.0 0.0 -0.0 49.1126 10.1932 -4.33271 -23.6192 -0.235139 -3.59133 6.32526 5.85717 0.937594 -4.49601 0.0 0.0 0.0 0.0 0.0 
1325.61308226 695.298 -1568.51317269 -15.4829392346 43.0674375579 9.60613188622 4.4096 -0.0517837 0.20318 4.40962 -0.0646076 0.199473 4.40938 -0.090829 0.188981 4.40934 -0.0598431 0.200954 -6.57667 -2.11665 -1.43313 -6.57155 -2.87887 -1.85284 -0.0 0.0 -0.0 5.28001 -15.8339 9.38016 -4.19491 -25.325 69.5178 1.47312 -36.1175 0.48034 -48.2415 -3.86714 4.58778 -3.14044 -15.6072 -28.8016 -0.0 0.0 -0.0 4.36817 2.01478 -8.3378 -25.6063 31.5424 -80.3884 0.29018 8.18022 -0.02075 -37.4414 2.68326 -3.87091 -5.76916 0.857416 42.9882 0.0 0.0 0.0 5.43706 18.7624 -3.15063 -27.7062 0.125067 4.20875 34.8707 -11.6561 -4.59071 -13.0228 0.0 0.0 -0.0 0.0 -0.0 49.3498 10.3697 -4.07797 -29.7357 -0.0540999 -4.51212 8.54977 3.17368 1.24472 -3.49177 0.0 0.0 0.0 0.0 0.0 
1311.41707361 700.771 -1587.59307844 -15.4967964092 43.1075731461 9.25425235395 4.41463 -0.0861139 0.122424 4.41463 -0.0937295 0.116696 4.41444 -0.108553 0.10305 4.41444 -0.0909158 0.118901 -6.80724 -1.7936 -1.01549 -6.80481 -2.59171 -1.3745 -0.0 0.0 -0.0 5.46131 -16.0457 9.7527 -5.05872 -24.9569 71.3928 1.26405 -32.0522 0.363096 -48.0425 -3.84417 4.57663 -3.44164 -15.7576 -31.1726 -0.0 0.0 -0.0 4.32444 2.12259 -8.24608 -24.7562 32.9536 -80.3861 0.337082 9.48001 -0.0279502 -38.6034 2.80387 -3.95856 -5.67404 0.306584 41.751 0.0 0.0 0.0 5.37161 17.6372 -2.63328 -28.3331 0.104295 4.30272 33.3742 -11.8572 -4.44495 -13.0385 0.0 0.0 -0.0 0.0 -0.0 49.0046 10.884 -4.08564 -33.1089 0.0875157 -5.01032 10.1897 -1.06828 1.45768 -2.84401 0.0 0.0 0.0 0.0 0.0 
1313.41860201 700.771 -1588.65024152 -15.2490309866 42.1281936348 8.88834800386 4.41463 -0.0861139 0.122424 4.41463 -0.0937295 0.116696 4.41444 -0.108553 0.10305 4.41444 -0.0909158 0.118901 -6.80724 -1.7936 -1.01549 -6.80481 -2.59171 -1.3745 -0.0 0.0 -0.0 5.46131 -16.0457 9.7527 -5.05872 -24.9569 71.3928 1.26405 -32.0522 0.363096 -48.0425 -3.84417 4.57663 -3.44164 -15.7576 -31.1726 -0.0 0.0 -0.0 4.32444 2.12259 -8.24608 -24.7562 32.9536 -80.3861 0.337082 9.48001 -0.0279502 -38.6034 2.80387 -3.95856 -5.67404 0.306584 41.751 0.0 0.0 0.0 5.37161 17.6372 -2.63328 -28.3331 0.104295 4.30272 33.3742 -11.8572 -4.44495 -13.0385 0.0 0.0 -0.0 0.0 -0.0 49.0046 10.884 -4.08564 -33.1089 0.0875157 -5.01032 10.1897 -1.06828 1.45768 -2.84401 0.0 0.0 0.0 0.0 0.0 
1263.10196306 710.717 -1634.00122587 -14.4695010914 42.8883599176 8.78088509502 4.19468 0.222965 -0.398076 4.19473 0.247843 -0.383082 4.19304 0.298388 -0.345171 4.19295 0.24013 -0.387963 -6.75185 -0.361901 0.239737 -6.75161 -0.845429 0.168387 -0.0 0.0 -0.0 5.48366 -16.8127 9.74247 -7.67899 -23.1651 74.7937 0.558108 -15.4547 0.075731 -45.2223 -3.52288 4.41 -4.24471 -20.3293 -39.4556 -0.0 0.0 -0.0 4.60505 2.25104 -8.79537 -23.0968 36.5342 -74.5388 0.396005 11.099 -0.0384763 -41.6699 3.13048 -4.17799 -5.24263 -2.34192 36.2699 0.0 0.0 0.0 11.0146 8.60091 -1.21473 -40.2279 -0.481332 6.03016 24.3002 4.96621 -3.25072 -9.43759 0.0 0.0 -0.0 0.0 -0.0 43.5965 13.1645 -6.4472 -31.2187 0.00453813 -4.73214 15.2403 -14.8956 2.1418 -2.5656 0.0 0.0 0.0 0.0 0.0 
1267.31127417 710.717 -1636.80883548 -14.13275671 41.4294825533 8.27921453045 4.19468 0.222965 -0.398076 4.19473 0.247843 -0.383082 4.19304 0.298388 -0.345171 4.19295 0.24013 -0.387963 -6.75185 -0.361901 0.239737 -6.75161 -0.845429 0.168387 -0.0 0.0 -0.0 5.48366 -16.8127 9.74247 -7.67899 -23.1651 74.7937 0.558108 -15.4547 0.075731 -45.2223 -3.52288 4.41 -4.24471 -20.3293 -39.4556 -0.0 0.0 -0.0 4.60505 2.25104 -8.79537 -23.0968 36.5342 -74.5388 0.396005 11.099 -0.0384763 -41.6699 3.13048 -4.17799 -5.24263 -2.34192 36.2699 0.0 0.0 0.0 11.0146 8.60091 -1.21473 -40.2279 -0.481332 6.03016 24.3002 4.96621 -3.25072 -9.43759 0.0 0.0 -0.0 0.0 -0.0 43.5965 13.1645 -6.4472 -31.2187 0.00453813 -4.73214 15.2403 -14.8956 2.1418 -2.5656 0.0 0.0 0.0 0.0 0.0 
1255.07667119 714.697 -1655.7883822 -13.1303259522 41.186351638 7.74041670217 4.10182 0.272357 -0.581459 4.10195 0.308804 -0.562951 4.09883 0.384465 -0.514258 4.09858 0.298424 -0.568521 -6.08478 0.710537 -0.00361713 -6.0846 1.31631 0.130402 -0.0 0.0 -0.0 5.08133 -16.2936 8.9194 -9.19756 -22.8405 76.3878 0.410796 -11.5026 0.0413747 -44.7457 -3.46942 4.38029 -4.42625 -20.005 -40.8623 -0.0 0.0 -0.0 4.87582 2.66594 -9.31495 -20.181 37.4394 -73.7997 0.360694 10.1308 -0.0319716 -42.5825 3.2299 -4.2399 -5.17054 -5.05568 33.8987 0.0 0.0 0.0 15.2994 1.87631 0.87073 -49.1809 -1.15158 7.23196 21.4277 14.6394 -2.93208 -7.45418 0.0 0.0 -0.0 0.0 -0.0 42.3517 14.4308 -8.21049 -31.0044 -0.00428541 -4.70045 17.7331 -20.0739 2.50758 -2.24813 0.0 0.0 0.0 0.0 0.0 
1238.17913887 716.12 -1668.25460058 -13.1098990341 41.5451193083 8.44969814212 4.01145 0.311062 -0.680936 4.01163 0.35376 -0.659764 4.00744 0.443481 -0.603126 4.0071 0.342666 -0.665594 -6.34791 1.52562 -0.326499 -6.34661 3.06342 -0.0346458 -0.0 0.0 -0.0 4.84195 -15.8312 8.44341 -9.74238 -22.8488 78.2578 0.320545 -9.02279 0.0252917 -44.4542 -3.43684 4.3619 -4.56557 -19.3586 -41.8089 -0.0 0.0 -0.0 4.57913 3.91443 -8.66375 -16.7222 38.339 -72.4855 0.351978 9.89085 -0.0304564 -43.2243 3.30041 -4.28249 -5.13555 -6.99044 32.3301 0.0 0.0 0.0 19.7863 -2.74516 2.40003 -56.2308 -1.80702 8.09726 18.6563 21.4804 -2.64377 -6.26272 0.0 0.0 -0.0 0.0 -0.0 40.9247 15.2073 -9.03117 -30.8246 -0.011601 -4.67382 19.5305 -23.6858 2.78702 -1.63402 0.0 0.0 0.0 0.0 0.0 
1222.0354304 721.636 -1681.68864505 -12.2126598929 42.279114118 8.16807338546 3.76398 0.33677 -0.745972 3.76421 0.383554 -0.723032 3.75924 0.484787 -0.65945 3.75883 0.374558 -0.727733 -6.61305 1.92215 -0.925832 -6.60871 4.23732 -0.551355 -0.0 0.0 -0.0 4.65765 -15.5002 8.07597 -10.1197 -22.6514 79.5836 0.240012 -6.78051 0.0142184 -44.167 -3.40482 4.34362 -4.65344 -18.8593 -42.377 -0.0 0.0 -0.0 4.17602 5.36205 -7.77183 -13.4991 39.1614 -71.3089 0.345752 9.71924 -0.029396 -43.6997 3.35295 -4.31354 -5.13897 -8.50971 31.3287 0.0 0.0 0.0 24.402 -5.29856 2.65899 -60.8426 -2.29165 8.61762 15.7841 26.3358 -2.31926 -5.80395 0.0 0.0 -0.0 0.0 -0.0 39.9341 15.636 -8.93566 -30.6835 -0.0172807 -4.65291 20.7536 -26.2159 2.98865 -1.21468 0.0 0.0 0.0 0.0 0.0 
1231.06455073 721.636 -1687.95639927 -11.7658373782 39.8651415573 7.48814255368 3.76398 0.33677 -0.745972 3.76421 0.383554 -0.723032 3.75924 0.484787 -0.65945 3.75883 0.374558 -0.727733 -6.61305 1.92215 -0.925832 -6.60871 4.23732 -0.551355 -0.0 0.0 -0.0 4.65765 -15.5002 8.07597 -10.1197 -22.6514 79.5836 0.240012 -6.78051 0.0142184 -44.167 -3.40482 4.34362 -4.65344 -18.8593 -42.377 -0.0 0.0 -0.0 4.17602 5.36205 -7.77183 -13.4991 39.1614 -71.3089 0.345752 9.71924 -0.029396 -43.6997 3.35295 -4.31354 -5.13897 -8.50971 31.3287 0.0 0.0 0.0 24.402 -5.29856 2.65899 -60.8426 -2.29165 8.61762 15.7841 26.3358 -2.31926 -5.80395 0.0 0.0 -0.0 0.0 -0.0 39.9341 15.636 -8.93566 -30.6835 -0.0172807 -4.65291 20.7536 -26.2159 2.98865 -1.21468 0.0 0.0 0.0 0.0 0.0 
1187.93340721 727.478 -1719.90457643 -13.670772963 45.8485191068 10.0716559293 3.39635 0.0190311 -0.40292 3.39644 0.0446312 -0.400893 3.39609 0.105008 -0.389462 3.39588 0.0421822 -0.401158 -6.34992 2.67859 -1.60633 -6.337 6.13449 -1.10032 -0.0 0.0 -0.0 2.84889 -14.0022 4.36468 -12.7326 -22.8496 83.0352 0.201702 -5.70604 0.010052 -42.979 -3.27341 4.26631 -4.62744 -13.0662 -39.6441 -0.0 0.0 -0.0 4.20104 10.5163 -7.48556 -1.02259 43.1469 -72.6561 0.44869 12.5315 -0.0492647 -44.83 3.47885 -4.38557 -5.14328 -13.2732 28.0581 0.0 0.0 0.0 39.5955 -3.47853 1.47809 -72.579 -3.69987 9.7531 -1.54842 29.0681 0.242931 -7.9334 0.0 0.0 -0.0 0.0 -0.0 32.8288 14.1767 -9.11475 -23.9071 -0.22883 -3.63507 22.4907 -27.6097 3.24344 2.4623 -0.0 -0.0 0.0 0.0 0.0 
1197.56568215 727.478 -1726.86396378 -13.1590071909 43.6855471522 9.34508337543 3.39635 0.0190311 -0.40292 3.39644 0.0446312 -0.400893 3.39609 0.105008 -0.389462 3.39588 0.0421822 -0.401158 -6.34992 2.67859 -1.60633 -6.337 6.13449 -1.10032 -0.0 0.0 -0.0 2.84889 -14.0022 4.36468 -12.7326 -22.8496 83.0352 0.201702 -5.70604 0.010052 -42.979 -3.27341 4.26631 -4.62744 -13.0662 -39.6441 -0.0 0.0 -0.0 4.20104 10.5163 -7.48556 -1.02259 43.1469 -72.6561 0.44869 12.5315 -0.0492647 -44.83 3.47885 -4.38557 -5.14328 -13.2732 28.0581 0.0 0.0 0.0 39.5955 -3.47853 1.47809 -72.579 -3.69987 9.7531 -1.54842 29.0681 0.242931 -7.9334 0.0 0.0 -0.0 0.0 -0.0 32.8288 14.1767 -9.11475 -23.9071 -0.22883 -3.63507 22.4907 -27.6097 3.24344 2.4623 -0.0 -0.0 0.0 0.0 0.0 
